<mxfile host="app.diagrams.net" modified="2022-01-29T14:22:18.159Z" agent="5.0 (Macintosh; Intel Mac OS X 10_15_7) AppleWebKit/537.36 (KHTML, like Gecko) Chrome/75.0.3770.100 Safari/537.36" etag="1Hd5U6zQVv5_LeBH_Yin" version="16.5.2" type="github" pages="2">
  <diagram id="RBLcFZ3gTbpYLGEy5wXY" name="Page-1">
    <mxGraphModel dx="1755" dy="1652" grid="1" gridSize="10" guides="1" tooltips="1" connect="1" arrows="1" fold="1" page="1" pageScale="1" pageWidth="827" pageHeight="1169" math="0" shadow="0">
      <root>
        <mxCell id="0" />
        <mxCell id="1" parent="0" />
        <mxCell id="5jpiuJt5tEty0Lqef1DL-1" value="" style="strokeWidth=1;shadow=0;dashed=0;align=center;html=1;shape=mxgraph.mockup.containers.browserWindow;rSize=0;strokeColor=#666666;strokeColor2=#008cff;strokeColor3=#c4c4c4;mainText=,;recursiveResize=0;" vertex="1" parent="1">
          <mxGeometry x="-60" y="160" width="800" height="910" as="geometry" />
        </mxCell>
        <mxCell id="5jpiuJt5tEty0Lqef1DL-2" value="My Blog" style="strokeWidth=1;shadow=0;dashed=0;align=center;html=1;shape=mxgraph.mockup.containers.anchor;fontSize=17;fontColor=#666666;align=left;" vertex="1" parent="5jpiuJt5tEty0Lqef1DL-1">
          <mxGeometry x="60" y="12" width="110" height="26" as="geometry" />
        </mxCell>
        <mxCell id="5jpiuJt5tEty0Lqef1DL-3" value="https://www.myblog.com" style="strokeWidth=1;shadow=0;dashed=0;align=center;html=1;shape=mxgraph.mockup.containers.anchor;rSize=0;fontSize=17;fontColor=#666666;align=left;" vertex="1" parent="5jpiuJt5tEty0Lqef1DL-1">
          <mxGeometry x="130" y="60" width="250" height="26" as="geometry" />
        </mxCell>
        <mxCell id="5jpiuJt5tEty0Lqef1DL-20" value="&lt;h1 style=&quot;font-size: 18px&quot;&gt;&lt;font style=&quot;font-size: 18px&quot;&gt;Welcome to my blog&amp;nbsp;&lt;/font&gt;&lt;/h1&gt;&lt;p style=&quot;line-height: 2.1 ; font-size: 18px&quot;&gt;Please sign in below to get exclusive access to the blog&amp;nbsp;&lt;/p&gt;" style="text;html=1;strokeColor=none;fillColor=none;spacing=5;spacingTop=-20;whiteSpace=wrap;overflow=hidden;rounded=0;align=center;" vertex="1" parent="5jpiuJt5tEty0Lqef1DL-1">
          <mxGeometry y="110" width="795" height="140" as="geometry" />
        </mxCell>
        <mxCell id="5jpiuJt5tEty0Lqef1DL-6" value="" style="strokeWidth=1;shadow=0;dashed=0;align=center;html=1;shape=mxgraph.mockup.forms.rrect;rSize=0;strokeColor=#999999;fillColor=#ffffff;" vertex="1" parent="5jpiuJt5tEty0Lqef1DL-1">
          <mxGeometry x="190" y="260" width="380" height="480" as="geometry" />
        </mxCell>
        <mxCell id="5jpiuJt5tEty0Lqef1DL-7" value="&lt;font style=&quot;font-size: 17px&quot;&gt;Sign In&lt;/font&gt;" style="strokeWidth=1;shadow=0;dashed=0;align=center;html=1;shape=mxgraph.mockup.forms.anchor;fontSize=12;fontColor=#666666;align=left;resizeWidth=1;spacingLeft=0;" vertex="1" parent="5jpiuJt5tEty0Lqef1DL-6">
          <mxGeometry width="65.51724137931035" height="20" relative="1" as="geometry">
            <mxPoint x="150" y="10" as="offset" />
          </mxGeometry>
        </mxCell>
        <mxCell id="5jpiuJt5tEty0Lqef1DL-8" value="" style="shape=line;strokeColor=#ddeeff;strokeWidth=2;html=1;resizeWidth=1;" vertex="1" parent="5jpiuJt5tEty0Lqef1DL-6">
          <mxGeometry width="342" height="10" relative="1" as="geometry">
            <mxPoint x="15" y="50" as="offset" />
          </mxGeometry>
        </mxCell>
        <mxCell id="5jpiuJt5tEty0Lqef1DL-9" value="User Name:" style="strokeWidth=1;shadow=0;dashed=0;align=center;html=1;shape=mxgraph.mockup.forms.anchor;fontSize=12;fontColor=#666666;align=left;resizeWidth=1;spacingLeft=0;" vertex="1" parent="5jpiuJt5tEty0Lqef1DL-6">
          <mxGeometry width="190.00000000000003" height="20" relative="1" as="geometry">
            <mxPoint x="50" y="90" as="offset" />
          </mxGeometry>
        </mxCell>
        <mxCell id="5jpiuJt5tEty0Lqef1DL-10" value="johndoe" style="strokeWidth=1;shadow=0;dashed=0;align=center;html=1;shape=mxgraph.mockup.forms.rrect;rSize=0;strokeColor=#999999;fontColor=#666666;align=left;spacingLeft=5;resizeWidth=1;" vertex="1" parent="5jpiuJt5tEty0Lqef1DL-6">
          <mxGeometry width="285" height="40" relative="1" as="geometry">
            <mxPoint x="48" y="125" as="offset" />
          </mxGeometry>
        </mxCell>
        <mxCell id="5jpiuJt5tEty0Lqef1DL-11" value="Password:" style="strokeWidth=1;shadow=0;dashed=0;align=center;html=1;shape=mxgraph.mockup.forms.anchor;fontSize=12;fontColor=#666666;align=left;resizeWidth=1;spacingLeft=0;" vertex="1" parent="5jpiuJt5tEty0Lqef1DL-6">
          <mxGeometry width="190.00000000000003" height="20" relative="1" as="geometry">
            <mxPoint x="50" y="170" as="offset" />
          </mxGeometry>
        </mxCell>
        <mxCell id="5jpiuJt5tEty0Lqef1DL-12" value="********" style="strokeWidth=1;shadow=0;dashed=0;align=center;html=1;shape=mxgraph.mockup.forms.rrect;rSize=0;strokeColor=#999999;fontColor=#666666;align=left;spacingLeft=5;resizeWidth=1;" vertex="1" parent="5jpiuJt5tEty0Lqef1DL-6">
          <mxGeometry width="285" height="40" relative="1" as="geometry">
            <mxPoint x="48" y="200" as="offset" />
          </mxGeometry>
        </mxCell>
        <mxCell id="5jpiuJt5tEty0Lqef1DL-13" value="SIGN IN" style="strokeWidth=1;shadow=0;dashed=0;align=center;html=1;shape=mxgraph.mockup.forms.rrect;rSize=5;strokeColor=none;fontColor=#ffffff;fillColor=#66bbff;fontSize=16;fontStyle=1;" vertex="1" parent="5jpiuJt5tEty0Lqef1DL-6">
          <mxGeometry y="1" width="260" height="30" relative="1" as="geometry">
            <mxPoint x="50" y="-200" as="offset" />
          </mxGeometry>
        </mxCell>
        <mxCell id="5jpiuJt5tEty0Lqef1DL-14" value="" style="strokeWidth=1;shadow=0;dashed=0;align=center;html=1;shape=mxgraph.mockup.forms.anchor;fontSize=12;fontColor=#9999ff;align=left;spacingLeft=0;fontStyle=4;resizeWidth=1;" vertex="1" parent="5jpiuJt5tEty0Lqef1DL-6">
          <mxGeometry y="1" width="285" height="20" relative="1" as="geometry">
            <mxPoint x="80" y="-110" as="offset" />
          </mxGeometry>
        </mxCell>
        <mxCell id="5jpiuJt5tEty0Lqef1DL-15" value="" style="shape=line;strokeColor=#ddeeff;strokeWidth=2;html=1;resizeWidth=1;" vertex="1" parent="5jpiuJt5tEty0Lqef1DL-6">
          <mxGeometry y="1" width="342" height="10" relative="1" as="geometry">
            <mxPoint x="10" y="-90" as="offset" />
          </mxGeometry>
        </mxCell>
        <mxCell id="5jpiuJt5tEty0Lqef1DL-5" value="&lt;b&gt;Home Page&lt;/b&gt;" style="text;html=1;strokeColor=none;fillColor=none;align=center;verticalAlign=middle;whiteSpace=wrap;rounded=0;" vertex="1" parent="1">
          <mxGeometry x="40" y="110" width="610" height="30" as="geometry" />
        </mxCell>
      </root>
    </mxGraphModel>
  </diagram>
  <diagram id="OJevcba9gRvt2_Ck5k1o" name="Page-2">
    <mxGraphModel dx="1935" dy="1433" grid="1" gridSize="10" guides="1" tooltips="1" connect="1" arrows="1" fold="1" page="1" pageScale="1" pageWidth="827" pageHeight="1169" math="0" shadow="0">
      <root>
        <mxCell id="ab95pZ52iRRw0WnqXQDJ-0" />
        <mxCell id="ab95pZ52iRRw0WnqXQDJ-1" parent="ab95pZ52iRRw0WnqXQDJ-0" />
        <mxCell id="S5TbI3z5DZF1CceDogJM-0" value="" style="strokeWidth=1;shadow=0;dashed=0;align=center;html=1;shape=mxgraph.mockup.containers.browserWindow;rSize=0;strokeColor=#666666;strokeColor2=#008cff;strokeColor3=#c4c4c4;mainText=,;recursiveResize=0;" vertex="1" parent="ab95pZ52iRRw0WnqXQDJ-1">
          <mxGeometry x="-300" y="120" width="1010" height="1060" as="geometry" />
        </mxCell>
        <mxCell id="S5TbI3z5DZF1CceDogJM-1" value="My Blog" style="strokeWidth=1;shadow=0;dashed=0;align=center;html=1;shape=mxgraph.mockup.containers.anchor;fontSize=17;fontColor=#666666;align=left;" vertex="1" parent="S5TbI3z5DZF1CceDogJM-0">
          <mxGeometry x="60" y="12" width="110" height="26" as="geometry" />
        </mxCell>
        <mxCell id="S5TbI3z5DZF1CceDogJM-2" value="https://www.myblog.com/myblog" style="strokeWidth=1;shadow=0;dashed=0;align=center;html=1;shape=mxgraph.mockup.containers.anchor;rSize=0;fontSize=17;fontColor=#666666;align=left;" vertex="1" parent="S5TbI3z5DZF1CceDogJM-0">
          <mxGeometry x="130" y="60" width="250" height="26" as="geometry" />
        </mxCell>
        <mxCell id="S5TbI3z5DZF1CceDogJM-3" value="&lt;h1 style=&quot;font-size: 18px&quot;&gt;&lt;font style=&quot;font-size: 18px&quot;&gt;Welcome to my blog&amp;nbsp;&lt;/font&gt;&lt;/h1&gt;&lt;p style=&quot;line-height: 2.1 ; font-size: 18px&quot;&gt;Musings and reflection of a mom-of-three, biochemist, and a budding&lt;/p&gt;&lt;p style=&quot;line-height: 2.1 ; font-size: 18px&quot;&gt;software engineer&amp;nbsp;&amp;nbsp;&lt;/p&gt;" style="text;html=1;spacing=5;spacingTop=-20;whiteSpace=wrap;overflow=hidden;rounded=0;align=center;fillColor=#f5f5f5;fontColor=#333333;strokeColor=#666666;" vertex="1" parent="S5TbI3z5DZF1CceDogJM-0">
          <mxGeometry y="110" width="1010" height="140" as="geometry" />
        </mxCell>
        <mxCell id="S5TbI3z5DZF1CceDogJM-14" value="&lt;span style=&quot;background-color: rgb(204 , 153 , 255)&quot;&gt;Header&lt;/span&gt;" style="text;html=1;strokeColor=none;fillColor=none;align=center;verticalAlign=middle;whiteSpace=wrap;rounded=0;fontSize=17;" vertex="1" parent="S5TbI3z5DZF1CceDogJM-0">
          <mxGeometry x="20" y="140" width="60" height="30" as="geometry" />
        </mxCell>
        <mxCell id="S5TbI3z5DZF1CceDogJM-19" value="" style="rounded=0;whiteSpace=wrap;html=1;labelBackgroundColor=#CC99FF;fontSize=17;fillColor=#FFD9F5;" vertex="1" parent="S5TbI3z5DZF1CceDogJM-0">
          <mxGeometry y="250" width="1010" height="140" as="geometry" />
        </mxCell>
        <mxCell id="S5TbI3z5DZF1CceDogJM-23" value="" style="rounded=0;whiteSpace=wrap;html=1;labelBackgroundColor=#FFFAFD;fontSize=17;fillColor=#F0D6FF;" vertex="1" parent="S5TbI3z5DZF1CceDogJM-0">
          <mxGeometry y="390" width="1010" height="140" as="geometry" />
        </mxCell>
        <mxCell id="S5TbI3z5DZF1CceDogJM-22" value="&lt;span style=&quot;background-color: rgb(204 , 153 , 255)&quot;&gt;postHeader&lt;/span&gt;" style="text;html=1;strokeColor=none;fillColor=none;align=center;verticalAlign=middle;whiteSpace=wrap;rounded=0;fontSize=17;" vertex="1" parent="S5TbI3z5DZF1CceDogJM-0">
          <mxGeometry x="20" y="250" width="60" height="30" as="geometry" />
        </mxCell>
        <mxCell id="S5TbI3z5DZF1CceDogJM-21" value="&lt;h1&gt;Blog post title&amp;nbsp;&lt;/h1&gt;&lt;div&gt;subtitle&amp;nbsp;&lt;/div&gt;" style="text;html=1;strokeColor=none;fillColor=none;spacing=5;spacingTop=-20;whiteSpace=wrap;overflow=hidden;rounded=0;labelBackgroundColor=#FFFAFD;fontSize=17;opacity=90;" vertex="1" parent="S5TbI3z5DZF1CceDogJM-0">
          <mxGeometry y="290" width="590" height="100" as="geometry" />
        </mxCell>
        <mxCell id="S5TbI3z5DZF1CceDogJM-24" value="&lt;span style=&quot;background-color: rgb(204 , 153 , 255)&quot;&gt;Content&lt;/span&gt;&amp;nbsp;" style="text;html=1;strokeColor=none;fillColor=none;align=center;verticalAlign=middle;whiteSpace=wrap;rounded=0;labelBackgroundColor=#FFFAFD;fontSize=17;" vertex="1" parent="S5TbI3z5DZF1CceDogJM-0">
          <mxGeometry x="10" y="400" width="60" height="30" as="geometry" />
        </mxCell>
        <mxCell id="S5TbI3z5DZF1CceDogJM-51" value="From" style="strokeWidth=1;shadow=0;dashed=0;align=center;html=1;shape=mxgraph.mockup.forms.anchor;align=right;spacingRight=2;fontColor=#666666;rounded=0;labelBackgroundColor=#FFFAFD;fontFamily=Helvetica;fontSize=17;fillColor=none;gradientColor=none;opacity=90;" vertex="1" parent="S5TbI3z5DZF1CceDogJM-0">
          <mxGeometry x="260" y="600" width="50" height="18" as="geometry" />
        </mxCell>
        <mxCell id="S5TbI3z5DZF1CceDogJM-52" value="john@jgraph.com" style="strokeWidth=1;shadow=0;dashed=0;align=center;html=1;shape=mxgraph.mockup.forms.rrect;fillColor=#ffffff;rSize=0;fontColor=#666666;align=left;spacingLeft=3;strokeColor=#999999;rounded=0;labelBackgroundColor=#FFFAFD;fontFamily=Helvetica;fontSize=17;opacity=90;" vertex="1" parent="S5TbI3z5DZF1CceDogJM-0">
          <mxGeometry x="310" y="600" width="350" height="18" as="geometry" />
        </mxCell>
        <mxCell id="S5TbI3z5DZF1CceDogJM-54" value="" style="strokeWidth=1;shadow=0;dashed=0;align=center;html=1;shape=mxgraph.mockup.forms.rrect;fillColor=#ffffff;rSize=0;fontColor=#666666;align=left;spacingLeft=3;strokeColor=#999999;rounded=0;labelBackgroundColor=#FFFAFD;fontFamily=Helvetica;fontSize=17;opacity=90;" vertex="1" parent="S5TbI3z5DZF1CceDogJM-0">
          <mxGeometry x="310" y="635" width="350" height="18" as="geometry" />
        </mxCell>
        <mxCell id="S5TbI3z5DZF1CceDogJM-55" value="" style="strokeWidth=1;shadow=0;dashed=0;align=center;html=1;shape=mxgraph.mockup.forms.anchor;align=right;spacingRight=2;fontColor=#666666;rounded=0;labelBackgroundColor=#FFFAFD;fontFamily=Helvetica;fontSize=17;fillColor=none;gradientColor=none;opacity=90;" vertex="1" parent="S5TbI3z5DZF1CceDogJM-0">
          <mxGeometry x="260" y="670" width="50" height="18" as="geometry" />
        </mxCell>
        <mxCell id="S5TbI3z5DZF1CceDogJM-57" value="" style="strokeWidth=1;shadow=0;dashed=0;align=center;html=1;shape=mxgraph.mockup.forms.anchor;align=right;spacingRight=2;fontColor=#666666;rounded=0;labelBackgroundColor=#FFFAFD;fontFamily=Helvetica;fontSize=17;fillColor=none;gradientColor=none;opacity=90;" vertex="1" parent="S5TbI3z5DZF1CceDogJM-0">
          <mxGeometry x="260" y="705" width="50" height="18" as="geometry" />
        </mxCell>
        <mxCell id="S5TbI3z5DZF1CceDogJM-61" value="Lorem ipsum dolor sit amet, consectetur adipisicing elit, sed do eiusmod tempor incididunt ut labore et dolore magna aliqua. Ut enim ad minim veniam, quis nostrud exercitation ullamco laboris nisi ut aliquip ex ea commodo consequat. Duis aute irure dolor in reprehenderit in voluptate velit esse cillum dolore eu fugiat nulla pariatur. Excepteur sint occaecat cupidatat non proident, sunt in culpa qui officia deserunt mollit anim id est laborum." style="strokeWidth=1;shadow=0;dashed=0;align=center;html=1;shape=mxgraph.mockup.forms.rrect;fillColor=#ffffff;rSize=0;fontColor=#666666;align=left;spacingLeft=3;strokeColor=#999999;verticalAlign=top;whiteSpace=wrap;rounded=0;labelBackgroundColor=#FFFAFD;fontFamily=Helvetica;fontSize=17;opacity=90;" vertex="1" parent="S5TbI3z5DZF1CceDogJM-0">
          <mxGeometry x="280" y="690" width="400" height="125" as="geometry" />
        </mxCell>
      </root>
    </mxGraphModel>
  </diagram>
</mxfile>
